<?xml version="1.0" standalone="no"?>
<!DOCTYPE svg PUBLIC "-//W3C//DTD SVG 20010904//EN"
 "http://www.w3.org/TR/2001/REC-SVG-20010904/DTD/svg10.dtd">
<svg version="1.0" xmlns="http://www.w3.org/2000/svg"
 width="409.000000pt" height="60.000000pt" viewBox="0 0 409.000000 60.000000"
 preserveAspectRatio="xMidYMid meet">

<g transform="translate(0.000000,60.000000) scale(0.100000,-0.100000)"
fill="#000000" stroke="none">
<path d="M4 585 c-3 -7 -3 -44 -1 -81 4 -58 8 -69 26 -76 12 -4 19 -12 16 -18
-4 -7 -12 -7 -24 0 -16 8 -17 6 -13 -16 5 -27 16 -28 67 -9 11 4 6 -2 -11 -13
-18 -11 -34 -25 -37 -30 -12 -18 -25 -92 -16 -86 5 3 9 0 9 -5 0 -6 -4 -11
-10 -11 -6 0 -9 -34 -8 -81 2 -81 2 -82 35 -101 44 -26 42 -41 -2 -22 -35 14
-35 14 -35 -11 l0 -25 143 0 142 1 -26 22 c-15 12 -34 37 -43 55 -19 37 -29
40 -49 12 -16 -23 -43 -18 -52 10 -3 10 -13 20 -23 22 -9 3 -27 23 -38 45
l-21 40 22 -11 c13 -6 22 -13 20 -16 -2 -3 9 -5 23 -4 15 1 35 3 45 3 9 1 17
8 17 16 0 14 -3 13 -28 -1 -27 -16 -27 -16 -6 2 51 45 58 106 18 154 l-26 31
24 -11 c44 -20 52 -71 23 -143 -5 -12 -3 -16 6 -14 8 2 11 2 7 0 -15 -8 -8
-25 7 -19 9 3 15 0 15 -8 0 -16 -45 -40 -59 -32 -6 4 -16 4 -22 0 -21 -12 12
-22 44 -13 25 7 33 5 44 -11 8 -11 20 -20 26 -19 9 0 9 2 0 6 -15 5 -18 33 -3
33 5 0 14 -8 19 -17 8 -14 10 -14 11 -4 0 13 2 13 13 2 10 -11 10 -14 -1 -18
-6 -3 -12 -12 -12 -20 0 -14 2 -14 19 1 18 17 20 15 37 -36 l17 -53 14 40 c25
75 23 72 38 52 9 -13 15 -15 20 -6 4 6 1 15 -6 20 -7 4 -10 11 -6 15 3 4 13 1
22 -6 18 -15 45 -6 45 15 0 12 6 15 20 10 12 -4 20 -2 20 5 0 7 -9 14 -21 17
-12 3 -18 11 -15 20 4 10 1 11 -14 3 -10 -5 -25 -10 -32 -10 -7 0 3 8 22 18
23 11 39 29 48 52 l13 35 -5 -32 c-4 -24 -2 -33 9 -33 8 0 15 12 17 28 2 15 6
22 10 17 3 -6 0 -26 -8 -45 -12 -27 -17 -31 -24 -20 -5 8 -12 11 -17 7 -10
-11 17 -27 46 -27 20 0 21 -2 11 -15 -18 -22 1 -18 30 6 23 19 23 20 3 14 -26
-7 -37 8 -29 39 4 15 15 25 30 28 28 6 36 -7 36 -53 0 -21 4 -27 15 -23 16 7
19 -6 9 -43 -7 -26 -24 -31 -24 -8 0 44 -28 -1 -58 -92 l-10 -33 64 0 64 0 0
89 c0 61 -4 92 -13 99 -7 6 -26 52 -43 101 -17 52 -35 91 -42 91 -7 0 -11 -4
-7 -9 6 -11 -16 -101 -25 -101 -3 0 -12 5 -20 10 -12 8 -12 12 -2 18 7 5 20
21 27 35 13 25 12 27 -7 27 -17 0 -18 3 -8 15 11 13 51 15 125 5 6 0 -2 -8
-17 -16 -37 -19 -36 -36 0 -23 l28 10 3 124 2 125 -34 0 c-26 0 -36 -5 -40
-20 -4 -17 0 -20 29 -20 19 0 34 -4 34 -9 0 -20 -20 -21 -52 -5 -56 29 -89 32
-112 9 -12 -11 -32 -28 -46 -37 l-25 -17 33 0 c17 -1 32 4 32 9 0 6 11 10 25
10 27 0 32 -9 15 -26 -13 -13 18 -13 38 0 7 4 12 2 12 -6 0 -10 2 -10 9 1 6 9
11 10 15 2 4 -6 -2 -18 -13 -28 -11 -9 -17 -21 -14 -26 3 -5 9 -3 13 4 7 10
14 9 35 -5 15 -10 25 -20 22 -22 -2 -3 -30 -1 -62 4 -51 8 -60 7 -77 -10 -28
-28 -44 -4 -22 30 21 31 12 37 -25 19 -30 -15 -31 -15 -31 5 0 12 -18 38 -41
59 -22 20 -37 39 -32 42 13 7 73 -4 73 -14 0 -10 33 -12 43 -2 11 10 -13 33
-34 33 -11 0 -19 5 -19 10 0 7 -72 10 -206 10 -162 -1 -206 -4 -210 -15z m281
-5 c-3 -5 -14 -10 -23 -10 -15 0 -15 2 -2 10 20 13 33 13 25 0z m35 -19 c0 -5
-8 -15 -17 -22 -16 -12 -17 -12 -6 2 7 9 10 19 6 22 -3 4 -1 7 5 7 7 0 12 -4
12 -9z m-101 -39 c-3 -19 3 -22 21 -12 11 6 20 9 20 7 0 -7 -31 -67 -35 -67
-14 0 -63 29 -82 48 -25 25 -24 26 12 12 17 -7 24 -7 20 0 -3 6 2 11 12 11 17
1 17 2 0 6 -9 2 -15 9 -12 14 7 10 46 -7 44 -19z m62 -59 c-12 -20 -14 -14 -5
12 4 9 9 14 11 11 3 -2 0 -13 -6 -23z m-196 -3 c4 -6 10 -8 14 -6 9 6 37 -11
30 -19 -8 -7 -69 15 -69 26 0 12 17 11 25 -1z m257 -2 c-9 -9 -15 -9 -24 0 -9
9 -7 12 12 12 19 0 21 -3 12 -12z m25 -20 c-3 -8 -6 -5 -6 6 -1 11 2 17 5 13
3 -3 4 -12 1 -19z m30 -10 c-3 -7 -5 -2 -5 12 0 14 2 19 5 13 2 -7 2 -19 0
-25z m-212 -9 c4 -6 5 -12 3 -14 -7 -7 -48 7 -48 16 0 13 37 11 45 -2z m60
-36 c-30 -4 -30 -5 -29 -61 l1 -57 -4 53 c-2 28 -9 52 -14 52 -6 0 -7 5 -4 10
3 6 23 9 43 8 33 -1 34 -2 7 -5z m147 0 c-20 -3 -30 -8 -26 -15 4 -7 2 -8 -5
-4 -19 12 -2 26 32 24 l32 -1 -33 -4z m-268 -35 c9 -12 16 -32 16 -44 0 -19
-3 -20 -35 -10 -43 13 -47 30 -5 21 17 -4 30 -3 30 2 0 14 -23 40 -40 46 -12
4 -12 6 2 6 9 1 24 -9 32 -21z m160 -1 c12 -19 -1 -48 -25 -55 -8 -2 -6 2 5
10 20 15 19 49 -1 56 -7 2 -13 -4 -13 -14 0 -9 -3 -15 -6 -11 -10 10 5 39 18
35 6 -2 16 -12 22 -21z m128 -29 c-5 -89 -9 -97 -11 -20 0 39 2 72 7 72 4 0 6
-24 4 -52z m-351 14 c-19 -35 -12 -51 26 -67 29 -12 38 -13 45 -3 6 10 8 9 8
-3 0 -26 -39 -69 -56 -62 -20 7 -44 56 -44 87 0 26 20 79 27 72 3 -2 0 -13 -6
-24z m398 -6 c-3 -3 -11 5 -18 17 -13 21 -12 21 5 5 10 -10 16 -20 13 -22z
m39 -22 c-3 -14 -5 -12 -10 9 -3 19 -2 25 4 19 6 -6 8 -18 6 -28z m-194 -6
c-4 -13 -7 -30 -6 -38 2 -12 1 -12 -7 1 -7 11 -7 24 2 42 14 31 22 28 11 -5z
m286 -15 c0 -7 -7 -13 -15 -13 -16 0 -19 9 -9 35 5 13 8 14 15 3 5 -7 9 -19 9
-25z m-123 -5 c-3 -7 -5 -2 -5 12 0 14 2 19 5 13 2 -7 2 -19 0 -25z m-199 -23
c-3 -3 -9 2 -12 12 -6 14 -5 15 5 6 7 -7 10 -15 7 -18z m176 -36 c-9 -10 -24
-19 -33 -18 -10 0 -7 4 7 10 13 5 27 19 30 31 3 13 7 17 10 10 2 -7 -4 -22
-14 -33z m-227 -6 c-3 -10 -5 -4 -5 12 0 17 2 24 5 18 2 -7 2 -21 0 -30z m146
-18 c4 3 5 2 2 -2 -10 -12 -39 -12 -47 0 -11 17 15 29 28 12 6 -8 14 -13 17
-10z m-69 -1 c3 -8 2 -12 -4 -9 -6 3 -10 10 -10 16 0 14 7 11 14 -7z m156 -59
c0 -8 -7 -15 -15 -15 -8 0 -15 7 -15 15 0 8 7 15 15 15 8 0 15 -7 15 -15z"/>
<path d="M86 221 c-4 -5 -2 -12 3 -15 5 -4 12 -2 15 3 4 5 2 12 -3 15 -5 4
-12 2 -15 -3z"/>
<path d="M468 592 c18 -12 122 -13 122 -2 0 6 -30 10 -67 10 -39 0 -62 -4 -55
-8z"/>
<path d="M804 436 c-3 -9 -12 -16 -20 -16 -8 0 -14 -9 -14 -20 0 -11 -6 -20
-14 -20 -8 0 -17 -15 -20 -35 -9 -48 3 -135 20 -135 7 0 16 -9 19 -20 9 -27
56 -27 75 0 8 11 20 20 27 20 7 0 13 9 13 19 0 11 7 27 16 36 22 21 14 136
-10 160 -24 24 -84 32 -92 11z m76 -42 c0 -21 -4 -25 -22 -22 -15 2 -24 11
-26 26 -3 18 1 22 22 22 21 0 26 -5 26 -26z m-100 -75 c0 -45 -2 -49 -15 -35
-17 16 -20 56 -5 56 6 0 10 7 10 15 0 8 2 15 5 15 3 0 5 -23 5 -51z m120 12
c0 -27 -15 -41 -41 -41 -24 0 -29 4 -29 25 0 22 4 25 35 25 19 0 35 -4 35 -9z
m-80 -91 c0 -20 -5 -30 -15 -30 -16 0 -19 17 -9 44 10 26 24 18 24 -14z m60
20 c0 -5 -4 -10 -10 -10 -5 0 -10 -9 -10 -20 0 -11 -7 -20 -15 -20 -10 0 -15
10 -15 30 0 25 4 30 25 30 14 0 25 -4 25 -10z"/>
<path d="M1730 435 c0 -11 11 -15 40 -15 54 0 54 24 0 28 -30 2 -40 -1 -40
-13z"/>
<path d="M2030 433 c0 -15 2 -16 9 -4 8 12 11 10 14 -10 6 -29 5 -122 -1 -96
-4 20 -32 23 -32 4 0 -8 9 -24 20 -37 23 -27 27 -80 6 -80 -15 0 -30 -29 -20
-39 4 -3 9 0 11 7 5 14 53 17 53 2 0 -16 37 -11 44 6 9 23 8 24 -19 24 -22 0
-25 4 -25 40 0 30 4 40 16 40 25 0 41 -23 48 -73 8 -52 10 -54 34 -30 12 12
13 18 4 21 -6 2 -12 15 -12 28 0 14 -7 38 -15 54 -12 24 -13 37 -4 73 11 37
10 46 -6 64 -10 12 -25 19 -36 16 -22 -6 -26 -23 -5 -23 7 0 16 -14 20 -31 9
-46 8 -49 -13 -49 -11 0 -22 -8 -25 -17 -3 -10 -3 6 -1 36 2 29 0 62 -6 72
-13 25 -59 26 -59 2z"/>
<path d="M2857 436 c-24 -24 -30 -80 -12 -122 9 -22 13 -50 9 -68 -9 -51 53
-104 70 -60 9 23 8 24 -19 24 -15 0 -25 6 -25 14 0 8 -3 21 -6 30 -5 13 1 16
29 16 34 0 35 -1 41 -50 4 -27 11 -50 16 -50 6 0 10 3 10 8 0 4 3 63 6 131 2
68 6 127 8 130 2 3 -22 7 -54 9 -41 2 -62 -2 -73 -12z m21 -40 c-4 -17 -1 -23
9 -19 16 6 17 -13 2 -56 -13 -36 -25 -40 -34 -10 -9 28 3 109 17 109 6 0 8
-11 6 -24z m62 -61 c0 -42 -2 -45 -26 -45 -22 0 -24 3 -18 23 4 12 10 24 14
27 3 3 9 13 13 23 11 29 17 19 17 -28z"/>
<path d="M1390 430 c0 -5 5 -10 10 -10 6 0 10 5 10 10 0 6 -4 10 -10 10 -5 0
-10 -4 -10 -10z"/>
<path d="M2330 430 c0 -5 7 -10 15 -10 8 0 15 5 15 10 0 6 -7 10 -15 10 -8 0
-15 -4 -15 -10z"/>
<path d="M2541 412 c-1 -20 5 -35 14 -38 8 -4 15 -12 15 -20 0 -8 -7 -14 -15
-14 -12 0 -15 -15 -15 -75 0 -68 2 -75 20 -75 11 0 20 -4 20 -10 0 -5 6 -10
14 -10 20 0 34 45 39 127 4 68 3 72 -19 77 -15 4 -24 14 -24 26 0 13 -7 20
-19 20 -11 0 -22 6 -24 13 -3 6 -6 -3 -6 -21z m69 -137 c0 -51 -3 -65 -15 -65
-12 0 -15 14 -15 65 0 51 3 65 15 65 12 0 15 -14 15 -65z"/>
<path d="M3210 430 c0 -5 5 -10 10 -10 6 0 10 5 10 10 0 6 -4 10 -10 10 -5 0
-10 -4 -10 -10z"/>
<path d="M3151 402 c0 -12 -8 -25 -16 -28 -12 -5 -15 -25 -15 -91 0 -62 4 -88
15 -99 13 -14 17 -13 32 2 13 13 14 19 5 22 -15 5 -17 132 -2 132 6 0 10 7 10
15 0 8 -4 15 -9 15 -5 0 -12 12 -14 28 -3 22 -4 23 -6 4z"/>
<path d="M3871 403 c0 -12 -5 -25 -11 -28 -12 -8 -13 -175 -1 -194 8 -12 12
-11 28 4 13 13 14 20 5 23 -15 5 -17 132 -2 132 6 0 10 7 10 15 0 8 -4 15 -9
15 -5 0 -12 12 -14 28 -3 21 -4 22 -6 5z"/>
<path d="M2440 360 c0 -11 -4 -20 -10 -20 -5 0 -10 7 -10 15 0 8 -4 15 -10 15
-5 0 -10 -7 -10 -15 0 -8 -4 -15 -9 -15 -5 0 -8 -38 -8 -84 1 -46 5 -79 10
-73 5 9 10 8 18 -3 8 -11 12 -12 16 -2 2 7 11 19 19 26 16 17 19 66 4 66 -13
0 -13 37 0 42 5 2 12 18 16 36 5 25 3 32 -10 32 -9 0 -16 -8 -16 -20z m-25
-70 c-4 -11 -2 -20 4 -20 6 0 11 -13 11 -30 0 -19 -5 -30 -14 -30 -10 0 -14
14 -14 50 0 28 5 50 10 50 5 0 6 -9 3 -20z"/>
<path d="M948 283 c-3 -89 4 -113 35 -113 18 0 33 33 18 38 -6 2 -11 32 -11
68 0 36 -4 64 -10 64 -5 0 -10 7 -10 15 0 8 -4 15 -9 15 -5 0 -11 -39 -13 -87z"/>
<path d="M1000 340 c0 -16 5 -30 10 -30 6 0 10 14 10 30 0 17 -4 30 -10 30 -5
0 -10 -13 -10 -30z"/>
<path d="M1070 355 c0 -8 -7 -15 -16 -15 -13 0 -15 -10 -10 -72 4 -40 7 -92 8
-116 0 -23 4 -42 9 -42 5 0 9 7 9 15 0 8 7 15 15 15 8 0 15 -7 15 -15 0 -21
40 -19 41 3 1 9 2 61 3 114 1 95 0 98 -21 98 -14 0 -23 6 -23 15 0 8 -7 15
-15 15 -8 0 -15 -7 -15 -15z m30 -95 c0 -38 -4 -50 -15 -50 -11 0 -15 12 -15
50 0 38 4 50 15 50 11 0 15 -12 15 -50z m10 -80 c0 -5 -7 -10 -15 -10 -8 0
-15 5 -15 10 0 6 7 10 15 10 8 0 15 -4 15 -10z"/>
<path d="M1190 355 c0 -8 5 -15 10 -15 6 0 10 -11 10 -25 0 -25 -20 -37 -20
-12 -1 29 -29 -41 -29 -73 -1 -39 17 -74 26 -52 6 16 40 16 46 0 2 -7 8 -9 13
-5 11 11 5 161 -7 165 -5 2 -9 10 -9 18 0 8 -9 14 -20 14 -11 0 -20 -7 -20
-15z m20 -115 c0 -16 -4 -30 -10 -30 -5 0 -10 6 -10 14 0 8 -3 21 -6 30 -4 11
-1 16 10 16 11 0 16 -9 16 -30z"/>
<path d="M1270 270 c0 -59 4 -100 10 -100 12 0 19 28 23 95 l3 50 2 -58 c2
-56 23 -99 40 -83 7 8 5 125 -4 169 -6 28 -34 38 -34 12 0 -8 -4 -15 -10 -15
-5 0 -10 7 -10 15 0 8 -4 15 -10 15 -6 0 -10 -40 -10 -100z"/>
<path d="M1379 353 c-3 -30 3 -178 6 -182 2 -1 10 3 18 10 13 13 14 75 1 157
-5 34 -23 44 -25 15z"/>
<path d="M1464 320 c6 -41 4 -50 -9 -50 -8 0 -15 -4 -15 -10 0 -5 7 -10 16
-10 14 0 16 -7 11 -40 -6 -45 4 -52 21 -15 15 32 15 72 1 77 -7 2 -6 13 3 32
10 23 10 30 0 34 -6 2 -12 10 -12 18 0 8 -5 14 -11 14 -8 0 -10 -16 -5 -50z"/>
<path d="M1560 355 c0 -8 5 -15 10 -15 6 0 10 -11 10 -25 0 -14 -4 -25 -10
-25 -5 0 -10 5 -10 10 0 19 -17 10 -28 -15 -13 -28 -16 -74 -6 -99 7 -17 34
-22 34 -6 0 14 28 12 33 -2 2 -7 8 -9 13 -5 11 11 5 161 -7 165 -5 2 -9 10 -9
18 0 8 -7 14 -15 14 -8 0 -15 -7 -15 -15z m20 -115 c0 -16 -4 -30 -10 -30 -5
0 -10 9 -10 20 0 11 -4 20 -10 20 -5 0 -10 5 -10 10 0 6 9 10 20 10 16 0 20
-7 20 -30z"/>
<path d="M1670 355 c0 -8 -7 -15 -15 -15 -12 0 -15 -13 -15 -59 0 -33 -3 -66
-6 -75 -4 -11 0 -16 14 -16 27 0 52 -67 31 -82 -10 -6 -7 -8 11 -6 20 2 26 9
28 36 3 24 -1 32 -13 32 -12 0 -15 6 -10 20 4 11 2 20 -4 20 -14 0 -14 97 0
102 6 2 8 14 4 31 -8 29 -25 37 -25 12z"/>
<path d="M1750 355 c0 -8 7 -15 15 -15 9 0 15 -9 15 -25 0 -25 -30 -37 -30
-12 -1 29 -29 -41 -29 -73 -1 -39 17 -74 26 -52 6 16 40 16 46 0 2 -7 8 -9 13
-5 11 11 5 161 -7 165 -5 2 -9 10 -9 18 0 8 -9 14 -20 14 -11 0 -20 -7 -20
-15z m30 -115 c0 -20 -5 -30 -15 -30 -8 0 -15 6 -15 14 0 8 -3 21 -6 30 -4 12
0 16 15 16 17 0 21 -6 21 -30z"/>
<path d="M1860 355 c0 -8 -7 -15 -15 -15 -12 0 -15 -15 -15 -75 0 -60 3 -75
15 -75 8 0 15 -4 15 -10 0 -17 22 -11 41 12 25 28 28 148 4 148 -8 0 -15 7
-15 15 0 8 -7 15 -15 15 -8 0 -15 -7 -15 -15z m30 -95 c0 -38 -4 -50 -15 -50
-11 0 -15 12 -15 50 0 38 4 50 15 50 11 0 15 -12 15 -50z"/>
<path d="M2260 355 c0 -9 -9 -15 -25 -15 -24 0 -25 -2 -25 -75 0 -68 2 -75 20
-75 11 0 20 -4 20 -10 0 -5 7 -10 15 -10 19 0 19 14 2 32 -15 15 -20 108 -6
108 5 0 9 -9 9 -20 0 -11 4 -20 9 -20 16 0 20 28 9 64 -11 36 -28 49 -28 21z"/>
<path d="M2318 353 c-7 -31 4 -183 13 -183 33 0 41 55 23 168 -5 34 -29 44
-36 15z"/>
<path d="M2700 355 c0 -9 -9 -15 -25 -15 -24 0 -25 -2 -25 -75 0 -68 2 -75 20
-75 11 0 20 -4 20 -10 0 -5 7 -10 15 -10 19 0 19 14 2 32 -15 15 -20 108 -6
108 5 0 9 -9 9 -20 0 -11 4 -20 9 -20 16 0 20 28 9 64 -11 36 -28 49 -28 21z"/>
<path d="M3030 355 c0 -8 -4 -15 -10 -15 -5 0 -10 -7 -10 -15 0 -8 5 -15 10
-15 15 0 13 -97 -2 -102 -9 -3 -8 -10 5 -22 25 -25 31 -15 38 62 l6 67 2 -60
c1 -61 13 -96 28 -82 8 9 6 124 -3 170 -6 28 -24 38 -24 12 0 -8 -4 -15 -10
-15 -5 0 -10 7 -10 15 0 8 -4 15 -10 15 -5 0 -10 -7 -10 -15z"/>
<path d="M3199 353 c-3 -30 3 -178 6 -182 2 -1 10 3 18 10 13 13 14 75 1 157
-5 34 -23 44 -25 15z"/>
<path d="M3290 355 c0 -8 -7 -15 -16 -15 -13 0 -15 -10 -10 -72 4 -40 7 -92 8
-116 0 -23 4 -42 9 -42 5 0 9 7 9 15 0 8 5 15 10 15 6 0 10 -7 10 -15 0 -21
30 -19 31 3 1 9 2 61 3 114 1 87 -1 98 -16 98 -10 0 -18 7 -18 15 0 8 -4 15
-10 15 -5 0 -10 -7 -10 -15z m20 -95 c0 -27 -4 -50 -10 -50 -5 0 -10 23 -10
50 0 28 5 50 10 50 6 0 10 -22 10 -50z m10 -80 c0 -5 -4 -10 -10 -10 -5 0 -10
5 -10 10 0 6 5 10 10 10 6 0 10 -4 10 -10z"/>
<path d="M3400 355 c0 -8 5 -15 10 -15 6 0 10 -11 10 -25 0 -25 -20 -37 -20
-12 -1 29 -29 -41 -29 -73 -1 -39 17 -74 26 -52 6 16 30 16 36 0 2 -7 8 -9 13
-5 11 11 5 161 -7 165 -5 2 -9 10 -9 18 0 8 -7 14 -15 14 -8 0 -15 -7 -15 -15z
m20 -115 c0 -16 -4 -30 -10 -30 -5 0 -10 6 -10 14 0 8 -3 21 -6 30 -4 11 -1
16 10 16 11 0 16 -9 16 -30z"/>
<path d="M3490 296 c0 -41 -2 -80 -5 -88 -3 -7 0 -20 5 -28 9 -13 11 -13 20 0
9 13 11 13 19 0 17 -26 26 -1 23 66 -3 53 -1 64 12 64 13 0 16 -12 16 -57 0
-58 12 -94 27 -80 9 10 4 160 -6 167 -5 3 -11 12 -14 20 -4 12 -6 11 -6 -2 -1
-22 -41 -25 -41 -3 0 21 -18 19 -23 -2 -4 -17 -5 -17 -6 0 0 9 -5 17 -11 17
-6 0 -10 -31 -10 -74z"/>
<path d="M3680 355 c0 -9 -9 -15 -25 -15 -24 0 -25 -2 -25 -75 0 -60 3 -75 15
-75 8 0 15 -4 15 -10 0 -5 9 -10 21 -10 23 0 55 27 45 38 -4 3 -12 0 -17 -8
-8 -11 -12 -12 -16 -2 -2 6 -11 12 -19 12 -17 0 -19 36 -1 44 10 5 10 7 0 12
-18 8 -16 44 2 44 8 0 15 -9 15 -20 0 -23 25 -27 33 -6 8 21 -14 86 -30 86 -7
0 -13 -7 -13 -15z"/>
<path d="M3749 353 c-4 -59 0 -175 5 -181 14 -13 26 24 28 83 2 59 2 59 5 10
5 -72 11 -95 28 -95 8 0 16 6 16 13 3 27 -2 134 -7 160 -6 28 -34 38 -34 12 0
-8 -4 -15 -10 -15 -5 0 -10 7 -10 15 0 21 -20 19 -21 -2z"/>
<path d="M3960 355 c0 -9 -9 -15 -25 -15 -24 0 -25 -2 -25 -75 0 -68 2 -75 20
-75 11 0 20 -4 20 -10 0 -5 7 -10 15 -10 19 0 19 14 2 32 -15 15 -20 108 -6
108 5 0 9 -9 9 -20 0 -11 4 -20 9 -20 16 0 20 28 9 64 -11 36 -28 49 -28 21z"/>
<path d="M1441 324 c0 -11 3 -14 6 -6 3 7 2 16 -1 19 -3 4 -6 -2 -5 -13z"/>
<path d="M650 315 c-14 -17 -7 -45 12 -45 9 0 8 3 -2 10 -12 8 -13 13 -2 30
14 23 10 27 -8 5z"/>
<path d="M591 234 c-1 -6 -11 -16 -23 -22 -14 -6 -17 -11 -8 -11 23 -1 43 15
37 30 -3 8 -6 9 -6 3z"/>
<path d="M657 220 c-3 -11 -1 -23 4 -26 5 -3 9 6 9 20 0 31 -6 34 -13 6z"/>
<path d="M2280 200 c0 -5 5 -10 10 -10 6 0 10 5 10 10 0 6 -4 10 -10 10 -5 0
-10 -4 -10 -10z"/>
<path d="M2720 200 c0 -5 5 -10 10 -10 6 0 10 5 10 10 0 6 -4 10 -10 10 -5 0
-10 -4 -10 -10z"/>
<path d="M3980 200 c0 -5 5 -10 10 -10 6 0 10 5 10 10 0 6 -4 10 -10 10 -5 0
-10 -4 -10 -10z"/>
<path d="M1450 125 c0 -8 5 -15 10 -15 6 0 10 7 10 15 0 8 -4 15 -10 15 -5 0
-10 -7 -10 -15z"/>
<path d="M495 73 c-4 -15 -10 -38 -15 -50 -8 -19 -6 -23 8 -23 34 0 45 16 38
54 -9 45 -24 55 -31 19z"/>
</g>
</svg>
